<svg xmlns="http://www.w3.org/2000/svg" xmlns:xlink="http://www.w3.org/1999/xlink" viewBox="0,0,256,256" width="50px" height="50px" fill-rule="nonzero"><g fill="#628693" fill-rule="nonzero" stroke="none" stroke-width="1" stroke-linecap="butt" stroke-linejoin="miter" stroke-miterlimit="10" stroke-dasharray="" stroke-dashoffset="0" font-family="none" font-weight="none" font-size="none" text-anchor="none" style="mix-blend-mode: normal"><g transform="scale(5.12,5.12)"><path d="M7,4c-0.553,0 -1,0.448 -1,1c0,0.551 -0.448,1 -1,1c-0.553,0 -1,0.448 -1,1v4c0,0.552 0.447,1 1,1c0.552,0 1,0.449 1,1c0,0.551 -0.448,1 -1,1c-0.553,0 -1,0.448 -1,1v4c0,0.552 0.447,1 1,1c0.552,0 1,0.449 1,1c0,0.551 -0.448,1 -1,1c-0.553,0 -1,0.448 -1,1v4c0,0.553 0.447,1 1,1c0.552,0 1,0.448 1,1c0,0.552 -0.448,1 -1,1c-0.553,0 -1,0.447 -1,1v4c0,0.553 0.447,1 1,1c0.552,0 1,0.448 1,1c0,0.552 -0.448,1 -1,1c-0.553,0 -1,0.447 -1,1v4c0,0.553 0.447,1 1,1c0.552,0 1,0.448 1,1c0,0.553 0.447,1 1,1h4c0.553,0 1,-0.447 1,-1c0,-0.552 0.448,-1 1,-1c0.552,0 1,0.448 1,1c0,0.553 0.447,1 1,1h4c0.553,0 1,-0.447 1,-1c0,-0.552 0.448,-1 1,-1c0.552,0 1,0.448 1,1c0,0.553 0.447,1 1,1h4c0.553,0 1,-0.447 1,-1c0,-0.552 0.448,-1 1,-1c0.552,0 1,0.448 1,1c0,0.553 0.447,1 1,1h4c0.553,0 1,-0.447 1,-1c0,-0.552 0.448,-1 1,-1c0.552,0 1,0.448 1,1c0,0.553 0.447,1 1,1h4c0.553,0 1,-0.447 1,-1c0,-0.552 0.448,-1 1,-1c0.553,0 1,-0.447 1,-1v-4c0,-0.553 -0.447,-1 -1,-1c-0.552,0 -1,-0.448 -1,-1c0,-0.552 0.448,-1 1,-1c0.553,0 1,-0.447 1,-1v-4c0,-0.553 -0.447,-1 -1,-1c-0.552,0 -1,-0.448 -1,-1c0,-0.552 0.448,-1 1,-1c0.553,0 1,-0.447 1,-1v-4c0,-0.552 -0.447,-1 -1,-1c-0.552,0 -1,-0.449 -1,-1c0,-0.551 0.448,-1 1,-1c0.553,0 1,-0.448 1,-1v-4c0,-0.552 -0.447,-1 -1,-1c-0.552,0 -1,-0.449 -1,-1c0,-0.551 0.448,-1 1,-1c0.553,0 1,-0.448 1,-1v-4c0,-0.552 -0.447,-1 -1,-1c-0.552,0 -1,-0.449 -1,-1c0,-0.552 -0.447,-1 -1,-1h-4c-0.553,0 -1,0.448 -1,1c0,0.551 -0.448,1 -1,1c-0.552,0 -1,-0.449 -1,-1c0,-0.552 -0.447,-1 -1,-1h-4c-0.553,0 -1,0.448 -1,1c0,0.551 -0.448,1 -1,1c-0.552,0 -1,-0.449 -1,-1c0,-0.552 -0.447,-1 -1,-1h-4c-0.553,0 -1,0.448 -1,1c0,0.551 -0.448,1 -1,1c-0.552,0 -1,-0.449 -1,-1c0,-0.552 -0.447,-1 -1,-1h-4c-0.553,0 -1,0.448 -1,1c0,0.551 -0.448,1 -1,1c-0.552,0 -1,-0.449 -1,-1c0,-0.552 -0.447,-1 -1,-1zM16.98047,11h16.57813l-1.06445,5h-11.51562l-1.06836,5h18.41016l-0.76172,3.10742l-9.48437,9.22266c0.859,0.133 1.68613,0.33008 2.57813,0.33008c2.17,0 4.66556,-0.65951 6.35156,-1.35352l-0.86523,4.06445c-2.48,1.19 -4.00133,1.28906 -5.48633,1.28906c-1.619,0 -3.17277,-0.52734 -4.75977,-0.52734c-0.892,0 -2.18161,0.06475 -2.97461,0.59375l-1.71875,-3.04102l9.7832,-9.68555h-11.92969l-2.34375,11h-5.0293z"></path></g></g></svg>