<svg id="visual" viewBox="0 0 900 600" width="900" height="600" xmlns="http://www.w3.org/2000/svg" xmlns:xlink="http://www.w3.org/1999/xlink" version="1.1"><rect x="0" y="0" width="900" height="600" fill="#d8dbdc"></rect><defs><linearGradient id="grad1_0" x1="33.3%" y1="0%" x2="100%" y2="100%"><stop offset="20%" stop-color="#7a69e9" stop-opacity="1"></stop><stop offset="80%" stop-color="#7a69e9" stop-opacity="1"></stop></linearGradient></defs><defs><linearGradient id="grad1_1" x1="33.3%" y1="0%" x2="100%" y2="100%"><stop offset="20%" stop-color="#7a69e9" stop-opacity="1"></stop><stop offset="80%" stop-color="#6385f2" stop-opacity="1"></stop></linearGradient></defs><defs><linearGradient id="grad1_2" x1="33.3%" y1="0%" x2="100%" y2="100%"><stop offset="20%" stop-color="#5c9cf2" stop-opacity="1"></stop><stop offset="80%" stop-color="#6385f2" stop-opacity="1"></stop></linearGradient></defs><defs><linearGradient id="grad1_3" x1="33.3%" y1="0%" x2="100%" y2="100%"><stop offset="20%" stop-color="#5c9cf2" stop-opacity="1"></stop><stop offset="80%" stop-color="#6cb0ed" stop-opacity="1"></stop></linearGradient></defs><defs><linearGradient id="grad1_4" x1="33.3%" y1="0%" x2="100%" y2="100%"><stop offset="20%" stop-color="#8ac0e6" stop-opacity="1"></stop><stop offset="80%" stop-color="#6cb0ed" stop-opacity="1"></stop></linearGradient></defs><defs><linearGradient id="grad1_5" x1="33.3%" y1="0%" x2="100%" y2="100%"><stop offset="20%" stop-color="#8ac0e6" stop-opacity="1"></stop><stop offset="80%" stop-color="#b0cfdf" stop-opacity="1"></stop></linearGradient></defs><defs><linearGradient id="grad1_6" x1="33.3%" y1="0%" x2="100%" y2="100%"><stop offset="20%" stop-color="#d8dbdc" stop-opacity="1"></stop><stop offset="80%" stop-color="#b0cfdf" stop-opacity="1"></stop></linearGradient></defs><defs><linearGradient id="grad2_0" x1="0%" y1="0%" x2="66.7%" y2="100%"><stop offset="20%" stop-color="#7a69e9" stop-opacity="1"></stop><stop offset="80%" stop-color="#7a69e9" stop-opacity="1"></stop></linearGradient></defs><defs><linearGradient id="grad2_1" x1="0%" y1="0%" x2="66.7%" y2="100%"><stop offset="20%" stop-color="#6385f2" stop-opacity="1"></stop><stop offset="80%" stop-color="#7a69e9" stop-opacity="1"></stop></linearGradient></defs><defs><linearGradient id="grad2_2" x1="0%" y1="0%" x2="66.7%" y2="100%"><stop offset="20%" stop-color="#6385f2" stop-opacity="1"></stop><stop offset="80%" stop-color="#5c9cf2" stop-opacity="1"></stop></linearGradient></defs><defs><linearGradient id="grad2_3" x1="0%" y1="0%" x2="66.7%" y2="100%"><stop offset="20%" stop-color="#6cb0ed" stop-opacity="1"></stop><stop offset="80%" stop-color="#5c9cf2" stop-opacity="1"></stop></linearGradient></defs><defs><linearGradient id="grad2_4" x1="0%" y1="0%" x2="66.7%" y2="100%"><stop offset="20%" stop-color="#6cb0ed" stop-opacity="1"></stop><stop offset="80%" stop-color="#8ac0e6" stop-opacity="1"></stop></linearGradient></defs><defs><linearGradient id="grad2_5" x1="0%" y1="0%" x2="66.7%" y2="100%"><stop offset="20%" stop-color="#b0cfdf" stop-opacity="1"></stop><stop offset="80%" stop-color="#8ac0e6" stop-opacity="1"></stop></linearGradient></defs><defs><linearGradient id="grad2_6" x1="0%" y1="0%" x2="66.7%" y2="100%"><stop offset="20%" stop-color="#b0cfdf" stop-opacity="1"></stop><stop offset="80%" stop-color="#d8dbdc" stop-opacity="1"></stop></linearGradient></defs><g transform="translate(900, 0)"><path d="M0 216.3C-8.2 194.6 -16.5 173 -27.1 170.9C-37.6 168.8 -50.5 186.3 -61.8 190.2C-73.1 194.1 -82.7 184.4 -88.5 173.7C-94.4 163 -96.5 151.3 -108.2 148.9C-119.8 146.4 -141.1 153.2 -145 145C-148.9 136.7 -135.4 113.5 -145.6 105.8C-155.8 98.1 -189.7 106 -192.8 98.2C-195.8 90.4 -168.2 66.9 -166.4 54.1C-164.7 41.3 -188.9 39.1 -201.5 31.9C-214.1 24.7 -215.2 12.3 -216.3 0L0 0Z" fill="#c4d5dd"></path><path d="M0 185.4C-7.1 166.8 -14.1 148.2 -23.2 146.5C-32.3 144.7 -43.3 159.7 -53 163C-62.6 166.4 -70.9 158.1 -75.9 148.9C-80.9 139.8 -82.7 129.7 -92.7 127.6C-102.7 125.5 -120.9 131.3 -124.2 124.2C-127.6 117.2 -116.1 97.3 -124.8 90.7C-133.6 84.1 -162.6 90.9 -165.2 84.2C-167.9 77.5 -144.2 57.3 -142.7 46.4C-141.2 35.4 -161.9 33.6 -172.7 27.4C-183.5 21.2 -184.5 10.6 -185.4 0L0 0Z" fill="#9cc8e2"></path><path d="M0 154.5C-5.9 139 -11.8 123.5 -19.3 122.1C-26.9 120.6 -36.1 133.1 -44.1 135.9C-52.2 138.7 -59.1 131.7 -63.2 124.1C-67.4 116.5 -68.9 108.1 -77.3 106.3C-85.6 104.6 -100.8 109.4 -103.5 103.5C-106.3 97.7 -96.7 81.1 -104 75.6C-111.3 70.1 -135.5 75.7 -137.7 70.2C-139.9 64.6 -120.1 47.8 -118.9 38.6C-117.6 29.5 -134.9 28 -143.9 22.8C-152.9 17.6 -153.7 8.8 -154.5 0L0 0Z" fill="#7ab8e9"></path><path d="M0 123.6C-4.7 111.2 -9.4 98.8 -15.5 97.6C-21.5 96.4 -28.9 106.5 -35.3 108.7C-41.7 110.9 -47.2 105.4 -50.6 99.3C-53.9 93.2 -55.1 86.5 -61.8 85.1C-68.5 83.7 -80.6 87.5 -82.8 82.8C-85.1 78.1 -77.4 64.8 -83.2 60.5C-89 56.1 -108.4 60.6 -110.1 56.1C-111.9 51.7 -96.1 38.2 -95.1 30.9C-94.1 23.6 -107.9 22.4 -115.1 18.2C-122.4 14.1 -123 7.1 -123.6 0L0 0Z" fill="#61a6f0"></path><path d="M0 92.7C-3.5 83.4 -7.1 74.1 -11.6 73.2C-16.1 72.3 -21.7 79.8 -26.5 81.5C-31.3 83.2 -35.4 79 -37.9 74.5C-40.5 69.9 -41.4 64.9 -46.4 63.8C-51.4 62.7 -60.5 65.7 -62.1 62.1C-63.8 58.6 -58 48.6 -62.4 45.3C-66.8 42.1 -81.3 45.4 -82.6 42.1C-83.9 38.7 -72.1 28.7 -71.3 23.2C-70.6 17.7 -80.9 16.8 -86.4 13.7C-91.8 10.6 -92.2 5.3 -92.7 0L0 0Z" fill="#5c91f3"></path><path d="M0 61.8C-2.4 55.6 -4.7 49.4 -7.7 48.8C-10.8 48.2 -14.4 53.2 -17.7 54.3C-20.9 55.5 -23.6 52.7 -25.3 49.6C-27 46.6 -27.6 43.2 -30.9 42.5C-34.2 41.8 -40.3 43.8 -41.4 41.4C-42.5 39.1 -38.7 32.4 -41.6 30.2C-44.5 28 -54.2 30.3 -55.1 28.1C-56 25.8 -48.1 19.1 -47.6 15.5C-47.1 11.8 -54 11.2 -57.6 9.1C-61.2 7.1 -61.5 3.5 -61.8 0L0 0Z" fill="#6d78ef"></path><path d="M0 30.9C-1.2 27.8 -2.4 24.7 -3.9 24.4C-5.4 24.1 -7.2 26.6 -8.8 27.2C-10.4 27.7 -11.8 26.3 -12.6 24.8C-13.5 23.3 -13.8 21.6 -15.5 21.3C-17.1 20.9 -20.2 21.9 -20.7 20.7C-21.3 19.5 -19.3 16.2 -20.8 15.1C-22.3 14 -27.1 15.1 -27.5 14C-28 12.9 -24 9.6 -23.8 7.7C-23.5 5.9 -27 5.6 -28.8 4.6C-30.6 3.5 -30.7 1.8 -30.9 0L0 0Z" fill="#7a69e9"></path></g><g transform="translate(0, 600)"><path d="M0 -216.3C10 -206.9 20 -197.4 31.1 -196.5C42.2 -195.7 54.4 -203.4 66.4 -204.5C78.5 -205.6 90.5 -200.1 94.4 -185.3C98.4 -170.6 94.3 -146.6 97.6 -134.3C100.8 -122 111.4 -121.4 115.3 -115.3C119.1 -109.1 116.3 -97.3 131.9 -95.8C147.4 -94.3 181.4 -103.2 192.8 -98.2C204.1 -93.2 192.9 -74.4 187.4 -60.9C181.8 -47.3 181.9 -39 187.7 -29.7C193.4 -20.4 204.9 -10.2 216.3 0L0 0Z" fill="#c4d5dd"></path><path d="M0 -185.4C8.6 -177.3 17.2 -169.2 26.7 -168.5C36.2 -167.7 46.6 -174.3 56.9 -175.3C67.3 -176.2 77.6 -171.5 80.9 -158.9C84.3 -146.2 80.8 -125.6 83.6 -115.1C86.4 -104.6 95.5 -104.1 98.8 -98.8C102.1 -93.5 99.7 -83.4 113 -82.1C126.4 -80.9 155.5 -88.4 165.2 -84.2C175 -79.9 165.4 -63.8 160.6 -52.2C155.8 -40.6 155.9 -33.4 160.9 -25.5C165.8 -17.5 175.6 -8.8 185.4 0L0 0Z" fill="#9cc8e2"></path><path d="M0 -154.5C7.2 -147.8 14.3 -141 22.2 -140.4C30.2 -139.8 38.8 -145.3 47.5 -146.1C56.1 -146.8 64.6 -142.9 67.5 -132.4C70.3 -121.8 67.4 -104.7 69.7 -95.9C72 -87.2 79.6 -86.7 82.3 -82.3C85.1 -77.9 83.1 -69.5 94.2 -68.4C105.3 -67.4 129.6 -73.7 137.7 -70.2C145.8 -66.6 137.8 -53.2 133.8 -43.5C129.9 -33.8 129.9 -27.9 134 -21.2C138.2 -14.6 146.3 -7.3 154.5 0L0 0Z" fill="#7ab8e9"></path><path d="M0 -123.6C5.7 -118.2 11.5 -112.8 17.8 -112.3C24.1 -111.8 31.1 -116.2 38 -116.8C44.9 -117.5 51.7 -114.3 54 -105.9C56.2 -97.5 53.9 -83.8 55.8 -76.7C57.6 -69.7 63.7 -69.4 65.9 -65.9C68.1 -62.3 66.5 -55.6 75.4 -54.7C84.2 -53.9 103.6 -59 110.1 -56.1C116.6 -53.3 110.2 -42.5 107.1 -34.8C103.9 -27 103.9 -22.3 107.2 -17C110.5 -11.7 117.1 -5.8 123.6 0L0 0Z" fill="#61a6f0"></path><path d="M0 -92.7C4.3 -88.7 8.6 -84.6 13.3 -84.2C18.1 -83.9 23.3 -87.2 28.5 -87.6C33.6 -88.1 38.8 -85.7 40.5 -79.4C42.2 -73.1 40.4 -62.8 41.8 -57.6C43.2 -52.3 47.7 -52 49.4 -49.4C51.1 -46.7 49.8 -41.7 56.5 -41.1C63.2 -40.4 77.7 -44.2 82.6 -42.1C87.5 -40 82.7 -31.9 80.3 -26.1C77.9 -20.3 78 -16.7 80.4 -12.7C82.9 -8.8 87.8 -4.4 92.7 0L0 0Z" fill="#5c91f3"></path><path d="M0 -61.8C2.9 -59.1 5.7 -56.4 8.9 -56.2C12.1 -55.9 15.5 -58.1 19 -58.4C22.4 -58.7 25.9 -57.2 27 -53C28.1 -48.7 26.9 -41.9 27.9 -38.4C28.8 -34.9 31.8 -34.7 32.9 -32.9C34 -31.2 33.2 -27.8 37.7 -27.4C42.1 -27 51.8 -29.5 55.1 -28.1C58.3 -26.6 55.1 -21.3 53.5 -17.4C51.9 -13.5 52 -11.1 53.6 -8.5C55.3 -5.8 58.5 -2.9 61.8 0L0 0Z" fill="#6d78ef"></path><path d="M0 -30.9C1.4 -29.6 2.9 -28.2 4.4 -28.1C6 -28 7.8 -29.1 9.5 -29.2C11.2 -29.4 12.9 -28.6 13.5 -26.5C14.1 -24.4 13.5 -20.9 13.9 -19.2C14.4 -17.4 15.9 -17.3 16.5 -16.5C17 -15.6 16.6 -13.9 18.8 -13.7C21.1 -13.5 25.9 -14.7 27.5 -14C29.2 -13.3 27.6 -10.6 26.8 -8.7C26 -6.8 26 -5.6 26.8 -4.2C27.6 -2.9 29.3 -1.5 30.9 0L0 0Z" fill="#7a69e9"></path></g></svg>