<svg id="visual" viewBox="0 0 900 600" width="900" height="600" xmlns="http://www.w3.org/2000/svg" xmlns:xlink="http://www.w3.org/1999/xlink" version="1.1"><path d="M0 127L21.5 117C43 107 86 87 128.8 89C171.7 91 214.3 115 257.2 118C300 121 343 103 385.8 105C428.7 107 471.3 129 514.2 128C557 127 600 103 642.8 95C685.7 87 728.3 95 771.2 96C814 97 857 91 878.5 88L900 85L900 0L878.5 0C857 0 814 0 771.2 0C728.3 0 685.7 0 642.8 0C600 0 557 0 514.2 0C471.3 0 428.7 0 385.8 0C343 0 300 0 257.2 0C214.3 0 171.7 0 128.8 0C86 0 43 0 21.5 0L0 0Z" fill="#b1cdf2"></path><path d="M0 217L21.5 233C43 249 86 281 128.8 309C171.7 337 214.3 361 257.2 356C300 351 343 317 385.8 302C428.7 287 471.3 291 514.2 296C557 301 600 307 642.8 301C685.7 295 728.3 277 771.2 261C814 245 857 231 878.5 224L900 217L900 83L878.5 86C857 89 814 95 771.2 94C728.3 93 685.7 85 642.8 93C600 101 557 125 514.2 126C471.3 127 428.7 105 385.8 103C343 101 300 119 257.2 116C214.3 113 171.7 89 128.8 87C86 85 43 105 21.5 115L0 125Z" fill="#a1c1ef"></path><path d="M0 331L21.5 338C43 345 86 359 128.8 382C171.7 405 214.3 437 257.2 438C300 439 343 409 385.8 394C428.7 379 471.3 379 514.2 385C557 391 600 403 642.8 400C685.7 397 728.3 379 771.2 366C814 353 857 345 878.5 341L900 337L900 215L878.5 222C857 229 814 243 771.2 259C728.3 275 685.7 293 642.8 299C600 305 557 299 514.2 294C471.3 289 428.7 285 385.8 300C343 315 300 349 257.2 354C214.3 359 171.7 335 128.8 307C86 279 43 247 21.5 231L0 215Z" fill="#91b5ec"></path><path d="M0 403L21.5 406C43 409 86 415 128.8 435C171.7 455 214.3 489 257.2 498C300 507 343 491 385.8 483C428.7 475 471.3 475 514.2 473C557 471 600 467 642.8 456C685.7 445 728.3 427 771.2 415C814 403 857 397 878.5 394L900 391L900 335L878.5 339C857 343 814 351 771.2 364C728.3 377 685.7 395 642.8 398C600 401 557 389 514.2 383C471.3 377 428.7 377 385.8 392C343 407 300 437 257.2 436C214.3 435 171.7 403 128.8 380C86 357 43 343 21.5 336L0 329Z" fill="#7ea4e0"></path><path d="M0 601L21.5 601C43 601 86 601 128.8 601C171.7 601 214.3 601 257.2 601C300 601 343 601 385.8 601C428.7 601 471.3 601 514.2 601C557 601 600 601 642.8 601C685.7 601 728.3 601 771.2 601C814 601 857 601 878.5 601L900 601L900 389L878.5 392C857 395 814 401 771.2 413C728.3 425 685.7 443 642.8 454C600 465 557 469 514.2 471C471.3 473 428.7 473 385.8 481C343 489 300 505 257.2 496C214.3 487 171.7 453 128.8 433C86 413 43 407 21.5 404L0 401Z" fill="#6c93d4"></path></svg>